<?xml version="1.0" standalone="no"?>
<!DOCTYPE svg PUBLIC "-//W3C//DTD SVG 20010904//EN"
 "http://www.w3.org/TR/2001/REC-SVG-20010904/DTD/svg10.dtd">
<svg version="1.0" xmlns="http://www.w3.org/2000/svg"
 width="800.000000pt" height="800.000000pt" viewBox="0 0 800.000000 800.000000"
 preserveAspectRatio="xMidYMid meet">
<metadata>
Created by potrace 1.14, written by Peter Selinger 2001-2017
</metadata>
<g transform="translate(0.000000,800.000000) scale(0.100000,-0.100000)"
fill="#000000" stroke="none">
<path d="M3945 7562 c9 -9 -35 -33 -47 -26 -7 5 -9 2 -5 -9 4 -11 2 -14 -7
-11 -7 3 -16 -2 -20 -11 -3 -9 -10 -13 -16 -10 -5 3 -10 1 -10 -4 0 -6 -3 -10
-7 -10 -20 3 -34 -2 -29 -10 8 -12 -20 -22 -39 -15 -10 4 -15 0 -15 -11 0 -9
-4 -13 -10 -10 -5 3 -10 1 -10 -5 0 -6 -8 -10 -17 -8 -10 2 -17 -3 -15 -9 1
-7 -7 -13 -19 -13 -13 0 -18 -4 -13 -12 5 -8 2 -9 -9 -5 -9 3 -16 3 -16 -1 3
-19 -3 -22 -22 -11 -13 6 -19 7 -15 1 3 -6 -2 -18 -11 -28 -12 -11 -18 -13
-21 -5 -3 8 -9 5 -19 -8 -8 -12 -25 -21 -41 -21 -21 0 -24 -2 -12 -10 13 -8
13 -10 -2 -10 -9 0 -21 -7 -26 -16 -5 -9 -23 -17 -39 -17 -22 -1 -29 -6 -25
-16 3 -9 1 -12 -6 -7 -7 4 -12 2 -12 -5 0 -8 -5 -7 -17 2 -11 10 -14 10 -9 1
5 -8 -2 -15 -18 -22 -14 -5 -26 -14 -26 -20 0 -6 -5 -8 -12 -4 -8 5 -9 2 -4
-11 5 -14 4 -16 -7 -6 -11 9 -17 8 -26 -2 -6 -8 -8 -17 -5 -20 4 -4 -7 -5 -25
-2 -17 2 -29 0 -26 -5 4 -7 -24 -24 -34 -20 -2 1 -8 -5 -13 -14 -5 -9 -14 -16
-20 -16 -6 0 -17 -8 -25 -17 -10 -12 -12 -13 -8 -3 4 8 -1 6 -9 -4 -11 -14
-16 -16 -16 -6 0 9 -6 6 -16 -8 -16 -23 -40 -31 -29 -9 4 6 -2 2 -12 -10 -10
-12 -39 -33 -65 -46 -26 -13 -45 -27 -41 -31 3 -3 -8 -6 -25 -6 -18 0 -31 -3
-31 -7 4 -25 -2 -35 -14 -24 -10 8 -19 7 -33 -5 -10 -8 -13 -12 -5 -8 10 5 12
3 7 -5 -4 -7 -13 -10 -19 -8 -6 2 -19 -5 -29 -15 -9 -9 -24 -15 -32 -12 -11 4
-14 0 -12 -13 4 -20 -17 -25 -42 -9 -7 4 -12 4 -11 -1 1 -4 1 -17 0 -28 -1
-17 -3 -18 -11 -5 -5 8 -10 10 -10 4 0 -7 -7 -11 -16 -10 -9 0 -19 -5 -22 -13
-3 -9 0 -11 8 -6 8 5 11 4 7 -2 -4 -6 -17 -9 -31 -8 -15 2 -35 -7 -54 -25 -17
-15 -33 -26 -36 -23 -3 3 -17 -4 -32 -16 -15 -11 -33 -21 -40 -21 -7 0 -19 -8
-26 -18 -17 -23 -45 -41 -33 -21 8 12 6 12 -8 0 -9 -7 -17 -10 -18 -5 0 5 -4
0 -8 -11 -4 -11 -14 -20 -22 -21 -34 -2 -39 -5 -39 -18 0 -8 -9 -12 -26 -10
-20 2 -23 0 -14 -11 9 -10 7 -13 -6 -11 -10 2 -28 -8 -41 -22 -13 -14 -23 -21
-23 -15 0 5 -6 10 -14 10 -8 0 -12 -6 -8 -15 4 -11 1 -13 -8 -7 -10 6 -12 4
-7 -9 6 -14 3 -15 -13 -6 -19 10 -24 6 -21 -13 0 -4 -2 -6 -6 -5 -5 1 -18 -3
-29 -10 -12 -6 -24 -8 -28 -4 -4 3 -4 -1 -1 -10 5 -13 2 -15 -16 -11 -13 4
-20 2 -16 -3 3 -6 -3 -15 -14 -22 -15 -10 -19 -10 -19 0 0 7 -7 4 -16 -7 -8
-11 -20 -19 -25 -17 -5 1 -9 -2 -9 -7 0 -6 -9 -8 -19 -6 -15 3 -18 -1 -14 -12
4 -11 2 -14 -5 -9 -7 4 -12 2 -12 -4 0 -6 -4 -8 -10 -5 -6 3 -7 -1 -4 -9 3 -9
1 -16 -5 -16 -6 0 -11 5 -11 10 0 6 -8 5 -19 -2 -11 -7 -17 -16 -15 -20 5 -7
-25 -12 -53 -9 -7 1 -13 -3 -13 -9 0 -5 6 -10 13 -10 6 0 4 -5 -6 -11 -10 -6
-21 -8 -24 -5 -3 3 -14 -5 -25 -17 -11 -12 -16 -16 -12 -8 4 8 2 12 -5 10 -7
-3 -12 -8 -11 -13 3 -13 -21 -25 -43 -20 -11 2 -17 1 -14 -3 11 -11 -24 -35
-43 -30 -11 3 -18 0 -17 -7 1 -6 -4 -10 -11 -8 -8 1 -11 -2 -7 -8 4 -7 -2 -14
-14 -17 -11 -3 -18 -10 -15 -15 4 -6 -3 -5 -15 1 -16 9 -21 9 -19 1 2 -7 -8
-19 -22 -28 -13 -9 -21 -11 -16 -4 4 6 2 12 -3 12 -6 0 -11 -6 -11 -14 0 -7
-8 -20 -17 -27 -11 -10 -14 -10 -9 -1 4 6 4 12 -1 12 -12 0 -39 -20 -28 -20 6
0 3 -4 -5 -10 -9 -5 -19 -5 -27 2 -10 8 -12 7 -8 -4 3 -8 -1 -21 -10 -28 -11
-9 -15 -9 -15 -1 0 7 -11 0 -25 -14 -28 -27 -41 -33 -29 -12 6 9 5 9 -8 0 -8
-7 -19 -9 -23 -5 -5 4 -5 2 -1 -5 7 -13 -27 -37 -38 -26 -3 3 -6 1 -6 -6 0 -7
-3 -10 -7 -8 -9 4 -44 -29 -37 -36 3 -2 -7 -3 -22 -1 -20 2 -25 -1 -21 -15 3
-14 -2 -16 -31 -13 -30 4 -34 2 -28 -13 5 -14 2 -16 -14 -12 -11 3 -18 1 -14
-4 3 -5 -2 -9 -11 -9 -9 0 -14 -4 -10 -9 3 -6 -3 -8 -14 -6 -12 2 -21 -3 -24
-15 -3 -13 -12 -18 -26 -15 -12 2 -19 0 -16 -4 5 -9 -23 -26 -38 -23 -4 1 -16
-7 -28 -19 -11 -11 -34 -25 -50 -31 -36 -13 -56 -66 -31 -85 9 -7 11 -13 6
-13 -15 0 -14 -972 0 -982 8 -5 8 -8 0 -8 -14 0 -15 -310 0 -310 8 0 8 -2 0
-8 -13 -9 -14 -1052 -1 -1052 4 0 5 -5 1 -11 -5 -8 -1 -8 13 0 14 7 24 7 33
-2 10 -9 11 -9 6 0 -4 8 1 11 14 10 11 -1 20 -5 20 -10 0 -5 6 -5 13 2 10 8
17 7 27 -2 9 -9 11 -9 6 0 -4 8 1 11 14 10 11 -1 20 -5 20 -10 0 -5 7 -4 15 3
8 6 20 8 27 4 17 -11 48 -13 42 -3 -2 4 5 7 16 6 11 -1 20 -5 20 -10 0 -5 7
-4 15 3 11 9 19 9 28 2 7 -6 18 -8 24 -4 9 6 98 8 98 2 0 -1 10 -3 22 -4 12
-1 20 1 17 5 -2 4 5 7 16 6 11 -1 20 -5 20 -10 0 -5 7 -4 15 3 11 9 19 9 28 2
7 -6 18 -8 24 -4 9 6 98 8 98 2 0 -1 10 -3 22 -4 12 -1 20 1 17 5 -2 4 5 7 16
6 11 -1 20 -5 20 -10 0 -5 7 -4 15 3 8 6 20 8 27 4 17 -11 48 -13 42 -3 -2 4
5 7 16 6 11 -1 20 -5 20 -10 0 -5 6 -5 13 2 10 8 17 7 27 -2 10 -9 11 -9 6 1
-8 14 3 16 24 2 16 -10 43 6 34 21 -3 5 0 9 7 9 8 0 8 4 -1 15 -9 11 -9 15 -1
15 7 0 9 5 5 12 -12 19 -12 48 -1 48 5 0 4 7 -3 15 -10 12 -10 15 0 15 10 0
10 3 0 15 -10 12 -10 15 0 15 10 0 10 3 0 15 -10 12 -10 15 0 15 10 0 10 3 0
15 -9 11 -9 15 -1 15 9 0 9 5 1 20 -8 15 -8 20 1 20 8 0 8 4 -1 15 -10 12 -10
15 0 15 10 0 10 3 0 15 -10 12 -10 15 0 15 10 0 10 3 0 15 -10 12 -10 15 0 15
10 0 10 3 0 15 -7 8 -8 15 -3 15 5 0 9 9 9 20 0 11 -4 20 -9 20 -5 0 -5 6 2
13 8 10 7 17 -1 25 -9 9 -9 12 1 12 11 0 11 3 1 15 -10 12 -10 15 0 15 10 0
10 3 0 15 -10 12 -10 15 0 15 10 0 10 3 0 15 -10 12 -10 15 0 15 10 0 10 3 0
15 -10 12 -10 15 0 15 10 0 10 3 0 15 -10 12 -10 15 0 15 10 0 10 3 0 15 -10
12 -10 15 0 15 10 0 10 3 0 15 -9 11 -9 15 -1 15 7 0 9 5 5 12 -12 19 -12 48
-1 48 5 0 4 7 -3 15 -10 12 -10 15 0 15 10 0 10 3 0 15 -10 12 -10 15 0 15 10
0 10 3 0 15 -10 12 -10 15 1 15 10 0 10 3 2 11 -12 12 0 45 22 61 7 5 6 8 -1
8 -5 0 -16 -6 -24 -12 -12 -11 -12 -10 -3 2 6 8 9 23 8 33 -3 14 1 17 18 12
15 -4 18 -3 9 3 -8 5 -11 20 -8 35 2 15 0 29 -5 32 -5 4 -5 13 1 25 13 25 13
33 -2 24 -9 -5 -9 -2 1 9 7 9 10 17 6 17 -4 0 -1 8 6 17 8 9 9 14 3 10 -7 -4
-14 0 -18 8 -3 8 0 17 6 21 7 5 8 2 3 -6 -5 -9 -4 -11 4 -6 6 4 9 11 6 16 -10
17 -13 120 -3 114 7 -5 7 -1 0 11 -6 11 -6 30 -1 47 5 17 4 26 -2 23 -12 -8
-11 2 2 27 6 11 7 18 1 14 -5 -3 -10 5 -10 19 0 14 5 22 11 18 6 -4 7 -1 2 7
-12 19 -12 190 0 190 6 0 3 5 -5 10 -13 9 -13 10 0 10 13 0 13 1 0 11 -11 8
-12 12 -2 16 6 2 10 8 7 12 -7 13 129 10 144 -3 11 -8 13 -8 8 0 -5 8 21 11
91 10 53 -1 107 2 120 6 16 6 21 4 16 -3 -4 -8 0 -9 15 -4 14 4 21 2 21 -7 0
-9 3 -9 8 -2 4 6 27 10 52 10 25 -1 55 2 67 6 18 6 21 4 16 -10 -6 -14 -4 -15
8 -5 16 13 36 12 58 -1 9 -6 12 -5 7 2 -4 7 13 10 51 8 32 -1 68 2 81 6 13 4
21 4 18 -1 -6 -9 98 -6 114 4 6 4 7 -1 3 -11 -5 -15 -3 -14 23 2 15 11 25 14
21 8 -5 -8 8 -11 43 -8 34 2 50 -1 50 -9 0 -9 3 -8 8 1 9 13 38 12 61 -2 9 -6
12 -5 8 1 -5 7 26 10 91 9 53 -1 107 2 120 6 16 6 21 4 16 -3 -4 -8 0 -9 15
-4 14 4 21 2 21 -7 0 -9 3 -9 8 -2 4 6 27 10 52 10 25 -1 55 2 67 6 18 6 21 4
16 -10 -6 -14 -4 -15 8 -5 16 13 36 12 58 -1 9 -6 12 -5 7 2 -4 7 13 10 51 8
32 -1 68 2 81 6 13 4 21 4 18 -1 -6 -9 98 -6 114 4 6 4 7 -1 3 -11 -5 -15 -3
-14 23 2 15 11 25 14 21 8 -5 -8 8 -11 43 -8 34 2 50 -1 50 -9 0 -9 2 -9 8 -1
4 6 27 11 52 10 25 -1 55 2 68 6 13 4 21 4 18 -1 -6 -9 87 -7 103 3 5 4 12 3
14 -2 7 -10 181 -7 197 3 8 5 11 4 7 -2 -7 -11 84 -10 102 1 5 4 12 3 14 -1 7
-11 99 -9 116 2 9 5 12 4 8 -2 -7 -11 95 -9 113 2 6 4 7 -1 3 -11 -5 -15 -3
-14 23 2 15 11 25 14 21 8 -5 -8 8 -11 43 -8 34 2 50 -1 50 -9 0 -9 3 -8 8 1
9 13 38 12 61 -2 9 -6 12 -5 8 1 -5 7 26 10 91 9 53 -1 107 2 120 6 16 6 21 4
16 -3 -4 -8 0 -9 15 -4 14 4 21 2 21 -7 0 -9 3 -9 8 -2 4 6 27 10 52 10 25 -1
55 2 67 6 18 6 21 4 16 -10 -6 -14 -4 -15 8 -5 16 13 36 12 58 -1 9 -6 12 -5
7 2 -4 7 13 10 51 8 32 -1 68 2 81 6 13 4 21 4 18 -1 -6 -9 98 -6 114 4 6 4 7
-1 3 -11 -5 -15 -3 -14 23 2 15 11 25 14 21 8 -5 -8 8 -11 43 -8 34 2 50 -1
50 -9 0 -9 2 -9 8 -1 4 6 27 11 52 10 25 -1 55 2 68 6 13 4 21 4 18 -1 -5 -7
67 -8 99 -1 6 1 12 1 15 0 14 -6 200 -4 200 3 0 4 8 -1 18 -10 11 -11 15 -22
10 -29 -4 -6 -5 -14 -1 -18 11 -11 10 -40 -2 -48 -6 -5 -5 -8 2 -8 9 0 10 -7
4 -23 -5 -13 -5 -30 -1 -37 5 -8 5 -21 0 -31 -5 -9 -6 -19 -3 -23 11 -10 9
-56 -1 -56 -6 0 -5 -5 1 -11 8 -8 8 -20 3 -35 -5 -13 -6 -24 -1 -24 4 0 8 -7
8 -15 0 -8 -5 -15 -10 -15 -5 0 -5 -6 2 -13 8 -10 7 -17 -1 -25 -7 -7 -8 -12
-2 -12 6 0 11 -7 11 -15 0 -8 -5 -15 -10 -15 -5 0 -4 -7 4 -16 10 -13 10 -17
-2 -25 -9 -6 -10 -9 -2 -9 9 0 10 -7 4 -23 -5 -13 -5 -30 -1 -37 5 -8 5 -21 0
-31 -5 -9 -6 -20 -2 -24 10 -10 9 -29 -3 -37 -6 -5 -6 -8 2 -8 9 0 10 -7 4
-23 -5 -13 -5 -30 -1 -37 5 -8 5 -21 0 -31 -5 -9 -6 -20 -2 -24 10 -10 9 -29
-3 -37 -6 -5 -6 -8 2 -8 9 0 10 -7 4 -23 -5 -13 -5 -30 -1 -37 5 -8 5 -21 0
-31 -5 -9 -6 -20 -2 -24 10 -10 9 -29 -3 -37 -6 -5 -6 -8 2 -8 9 0 10 -7 4
-23 -5 -13 -5 -30 -1 -37 5 -8 4 -22 -1 -31 -6 -11 -5 -20 1 -24 7 -4 7 -13 0
-26 -6 -10 -7 -19 -2 -19 5 0 9 -7 9 -15 0 -8 -5 -15 -10 -15 -5 0 -5 -6 2
-13 8 -10 7 -17 -1 -25 -7 -7 -8 -12 -2 -12 6 0 11 -7 11 -15 0 -8 -4 -15 -9
-15 -5 0 -6 -6 -2 -12 12 -19 12 -48 1 -48 -6 0 -6 -5 -1 -12 11 -16 11 -39 1
-55 -5 -8 -3 -13 4 -13 8 0 8 -4 -1 -15 -7 -8 -8 -15 -3 -15 9 0 10 -22 3 -55
-1 -5 -1 -12 0 -15 7 -18 4 -60 -4 -60 -6 0 -5 -5 1 -11 8 -8 8 -20 3 -35 -7
-16 -6 -24 1 -24 8 0 8 -4 0 -14 -8 -10 -9 -16 -1 -21 6 -3 8 -11 5 -16 -4 -5
-3 -14 1 -20 4 -8 9 -7 15 2 7 11 9 11 9 1 0 -7 5 -10 10 -7 6 3 10 1 10 -6 0
-8 4 -8 13 -2 15 13 47 13 47 1 0 -5 6 -6 12 -1 17 10 47 10 76 1 14 -5 21 -4
17 1 -3 6 4 9 15 8 11 -1 20 -5 20 -10 0 -5 6 -5 13 2 10 8 17 7 27 -2 9 -9
11 -9 6 0 -4 8 1 11 14 10 11 -1 20 -5 20 -10 0 -4 6 -5 13 0 17 11 81 10 89
-2 5 -6 8 -6 8 1 0 11 40 11 57 1 5 -3 15 -2 23 3 9 5 20 4 29 -3 11 -9 13 -9
8 0 -8 13 30 12 52 -2 9 -5 12 -4 8 2 -8 13 102 11 122 -2 9 -5 12 -4 8 2 -4
6 0 13 8 17 8 3 17 1 20 -4 4 -6 11 -10 16 -10 6 0 8 4 4 9 -3 5 -1 13 5 16 6
4 10 3 9 -2 -3 -19 2 -25 15 -14 10 9 16 8 25 -3 13 -15 45 -11 36 4 -3 5 0
12 6 16 7 4 9 3 6 -3 -4 -6 0 -13 8 -17 13 -5 19 4 17 24 0 3 24 3 54 0 35 -4
54 -2 54 4 0 7 3 7 8 0 5 -9 10 -8 19 2 9 9 10 15 2 20 -8 4 -7 9 2 15 11 6
11 11 2 20 -7 7 -9 19 -4 28 9 19 8 62 -2 78 -4 6 -4 14 1 16 10 7 8 119 -3
136 -5 8 -4 12 1 8 12 -7 11 134 -1 153 -5 7 -4 11 1 8 5 -4 9 26 9 67 0 40
-3 71 -7 69 -5 -3 -8 -1 -8 5 0 5 5 11 11 13 9 3 9 10 -1 27 -6 13 -8 21 -3
18 12 -7 10 114 -2 133 -5 8 -4 11 2 7 5 -4 10 6 10 23 0 17 -5 27 -10 23 -6
-4 -7 -1 -2 7 11 18 13 80 3 86 -5 3 -5 11 -1 17 10 16 11 127 1 121 -4 -3 -8
-1 -8 5 0 5 5 11 11 13 9 3 9 10 -1 27 -6 13 -8 21 -3 18 11 -7 10 94 -2 113
-5 7 -4 11 1 7 12 -7 11 134 -1 153 -5 8 -4 11 1 7 12 -7 11 154 -1 173 -5 8
-4 11 2 7 5 -4 10 6 10 23 0 16 -5 27 -10 23 -5 -3 -5 2 0 13 11 22 11 64 0
81 -4 6 -4 14 1 17 10 6 8 138 -3 156 -5 8 -4 11 2 7 5 -4 10 6 10 23 0 16 -5
27 -10 23 -5 -3 -5 2 0 13 11 22 11 64 0 81 -4 6 -4 14 1 17 10 6 8 138 -3
156 -5 7 -4 11 1 7 5 -3 10 20 10 54 0 35 -4 59 -10 59 -6 0 -4 5 4 10 10 6
11 10 3 10 -7 0 -13 7 -13 16 0 8 -4 12 -10 9 -5 -3 -10 -1 -10 4 0 6 -6 10
-12 8 -7 -1 -12 4 -10 11 1 8 -5 13 -15 12 -32 -4 -43 0 -40 13 1 8 -9 12 -29
11 -18 -1 -31 3 -30 10 0 6 -3 11 -7 11 -5 0 -15 11 -24 25 -8 14 -12 17 -9 8
3 -10 0 -20 -6 -24 -7 -4 -8 -3 -4 4 4 8 -3 16 -18 22 -14 5 -26 12 -26 15 0
4 6 3 13 -1 8 -5 9 -4 2 4 -6 7 -23 13 -37 14 -19 2 -24 6 -17 14 6 8 2 11
-13 11 -41 1 -49 3 -44 12 3 5 -8 14 -24 21 -17 7 -27 17 -23 24 4 7 2 7 -7
-1 -10 -9 -16 -9 -26 2 -8 7 -14 20 -14 27 0 10 -3 9 -10 -2 -9 -13 -10 -13
-10 0 0 13 -2 13 -9 1 -8 -12 -11 -9 -17 13 -5 20 -9 24 -15 14 -6 -9 -9 -9
-9 -1 0 6 -9 10 -20 8 -11 -2 -23 1 -26 7 -5 7 -2 8 7 3 8 -4 5 1 -6 12 -11
11 -21 16 -23 12 -5 -13 -22 -11 -20 2 2 6 -6 13 -16 15 -10 1 -25 10 -33 18
-7 9 -8 11 -1 6 7 -6 16 -10 22 -10 5 0 1 6 -10 14 -11 9 -23 11 -28 6 -6 -6
-19 2 -34 18 -13 15 -21 21 -18 15 5 -8 1 -13 -9 -13 -11 0 -15 5 -12 14 4 10
-1 13 -18 11 -14 -1 -22 2 -19 6 3 5 0 9 -6 9 -6 0 -8 5 -4 12 4 6 3 8 -3 5
-6 -4 -23 4 -38 17 -15 13 -33 22 -40 20 -7 -3 -19 1 -26 8 -8 7 -21 14 -29
16 -20 5 -41 23 -36 31 3 4 -5 8 -17 8 -12 1 -23 7 -25 13 -2 5 -10 10 -18 10
-9 0 -12 5 -8 11 3 6 -1 10 -12 9 -31 -4 -46 -1 -40 8 2 4 -7 12 -20 19 -13 6
-22 7 -18 2 3 -5 -2 -6 -10 -3 -9 3 -16 13 -16 21 0 8 -4 11 -10 8 -5 -3 -10
0 -10 7 0 8 -9 14 -21 15 -11 1 -29 11 -39 23 -12 14 -21 17 -25 10 -5 -8 -11
-8 -21 1 -7 6 -12 14 -10 18 3 4 -5 8 -17 8 -12 1 -23 7 -25 13 -2 5 -10 10
-18 10 -9 0 -12 5 -8 12 4 6 3 8 -4 4 -6 -3 -17 0 -25 8 -9 10 -18 11 -26 5
-6 -5 -9 -6 -6 -3 8 12 -36 43 -52 37 -10 -4 -14 -2 -10 4 8 12 -20 26 -33 18
-5 -3 -14 3 -20 14 -6 12 -16 18 -26 14 -8 -3 -14 -2 -13 3 4 23 -2 33 -17 27
-9 -3 -21 3 -31 16 -12 18 -18 20 -29 10 -12 -10 -16 -8 -21 9 -3 15 -13 22
-29 22 -13 0 -24 5 -24 10 0 6 -6 10 -13 10 -7 0 -22 7 -33 16 -10 8 -13 12
-5 8 10 -5 12 -3 7 5 -5 7 -14 10 -22 7 -7 -3 -18 3 -23 13 -7 12 -19 17 -36
15 -19 -2 -25 2 -21 11 7 20 -4 26 -27 14 -14 -8 -18 -8 -13 0 4 6 0 11 -9 11
-9 0 -13 5 -10 10 3 6 -1 10 -9 10 -9 0 -16 6 -16 13 0 8 -4 7 -10 -3 -8 -12
-10 -12 -10 5 0 17 -2 17 -10 5 -8 -13 -10 -12 -10 3 0 10 -4 16 -9 13 -5 -3
-12 1 -15 9 -3 8 -9 15 -13 14 -23 -4 -43 2 -38 11 3 6 -1 10 -10 10 -10 0
-13 5 -9 13 6 9 4 9 -8 -1 -19 -15 -34 0 -22 21 5 8 2 8 -9 -2 -11 -9 -17 -10
-17 -2 0 6 -7 11 -15 11 -8 0 -15 5 -15 10 0 6 -8 10 -17 8 -10 -2 -18 3 -18
12 0 8 -7 15 -15 16 -26 2 -50 16 -44 25 3 6 -5 8 -19 5 -19 -3 -26 1 -30 15
-4 13 -10 17 -23 12 -12 -4 -15 -3 -10 5 7 12 -5 16 -33 13 -7 -2 -10 2 -6 8
3 6 -1 11 -10 11 -9 0 -13 5 -10 10 3 6 -3 10 -15 10 -11 0 -31 9 -42 20 -17
15 -24 17 -30 8 -6 -10 -8 -10 -8 0 0 7 -4 10 -10 7 -6 -3 -7 1 -4 10 4 9 3
15 -2 14 -23 -4 -35 2 -28 14 5 7 2 7 -10 -2 -9 -8 -16 -10 -14 -5 2 5 0 9 -4
9 -4 0 -15 10 -23 23 -17 23 -41 31 -30 10 4 -7 -2 -4 -12 7 -18 19 -35 27
-60 28 -7 0 -13 7 -13 15 0 10 -7 13 -21 9 -15 -4 -18 -2 -10 7 14 17 1 29
-16 15 -8 -7 -13 -8 -13 -1 0 5 -13 15 -30 22 -16 7 -30 15 -30 19 0 3 -9 12
-21 19 -17 11 -20 11 -13 0 6 -11 5 -11 -9 0 -9 8 -21 11 -26 7 -7 -4 -8 1 -4
11 5 14 2 16 -15 12 -16 -5 -19 -2 -14 11 5 14 3 14 -11 3 -14 -12 -16 -11
-12 8 3 18 2 20 -10 10 -15 -12 -20 -3 -16 23 1 4 -8 3 -18 -3 -13 -7 -22 -7
-26 0 -4 6 -11 7 -17 4 -7 -4 -8 -2 -4 4 12 20 -4 35 -22 20 -12 -10 -14 -10
-8 0 4 7 2 12 -8 12 -8 0 -20 8 -25 18 -6 9 -11 13 -11 8 0 -4 -8 0 -17 11
-10 10 -13 12 -8 4 9 -12 7 -12 -12 -2 -13 6 -23 16 -23 21 0 5 -16 12 -35 16
-26 4 -33 10 -26 18 7 8 4 12 -10 13 -13 1 -17 -2 -12 -10 5 -9 3 -9 -8 -1
-13 11 -54 16 -44 6z"/>
<path d="M2486 4546 c3 -9 1 -16 -5 -16 -6 0 -11 5 -11 11 0 8 -6 7 -17 -2
-11 -10 -14 -10 -9 -1 4 6 2 12 -3 12 -6 0 -11 -7 -11 -17 0 -9 -3 -13 -6 -10
-4 3 -15 2 -25 -4 -14 -7 -19 -6 -19 2 0 9 -3 9 -14 0 -10 -8 -16 -9 -21 -1
-4 7 -12 7 -26 0 -14 -8 -19 -7 -19 1 0 9 -3 9 -14 0 -8 -7 -17 -8 -20 -3 -7
12 -78 5 -87 -10 -4 -7 -3 -15 3 -19 7 -4 6 -8 -3 -12 -11 -4 -11 -6 1 -6 13
-1 13 -2 0 -11 -11 -7 -11 -10 -2 -10 8 0 10 -5 6 -12 -11 -18 -12 -48 -2 -48
5 0 4 -9 -2 -20 -8 -15 -8 -20 2 -20 10 0 10 -2 -1 -9 -9 -6 -10 -11 -2 -15 8
-5 8 -13 0 -29 -9 -16 -9 -22 -1 -25 9 -3 9 -9 2 -23 -8 -14 -7 -19 2 -19 9 0
9 -3 -2 -10 -11 -7 -11 -10 -2 -10 7 0 10 -5 6 -12 -10 -15 -13 -68 -5 -68 4
0 7 -9 7 -20 0 -11 -3 -20 -7 -20 -10 0 -5 -44 6 -52 6 -4 -1 -8 -15 -9 -14 0
-19 -3 -13 -6 10 -3 10 -10 2 -25 -8 -15 -8 -19 0 -14 7 5 9 1 5 -8 -3 -9 -9
-14 -13 -12 -3 2 -6 -6 -6 -19 0 -19 3 -21 14 -12 12 10 12 9 2 -11 -7 -13
-10 -30 -7 -38 3 -8 1 -14 -5 -14 -6 0 -7 -5 -3 -12 9 -15 11 -68 2 -68 -4 0
-3 -13 2 -30 6 -20 5 -30 -2 -30 -7 0 -6 -5 1 -14 9 -11 9 -15 -1 -19 -7 -3
-8 -6 -2 -6 6 -1 9 -12 6 -26 -10 -53 17 -92 40 -60 5 6 8 6 8 -2 0 -12 17
-12 38 0 7 5 12 4 12 -2 0 -13 22 -10 32 4 5 6 8 6 8 -1 0 -12 38 -13 58 -1 6
5 12 4 12 -2 0 -9 37 -7 48 3 2 3 13 1 23 -5 14 -7 19 -6 19 3 0 10 2 10 9 0
4 -8 12 -14 16 -14 4 0 12 6 16 14 7 10 9 10 9 0 0 -9 5 -10 19 -2 14 7 22 7
27 -1 4 -8 9 -7 15 2 5 8 9 9 9 4 0 -6 11 -11 25 -11 14 0 25 4 25 8 0 5 9 4
20 -2 15 -8 20 -8 20 2 0 8 3 9 8 3 8 -12 62 -13 79 -2 6 4 15 3 18 -3 5 -8
11 -7 22 1 9 8 17 9 21 3 11 -14 32 -15 32 -1 0 7 3 8 8 2 4 -5 16 -10 27 -10
11 0 23 5 27 10 5 7 8 6 8 0 0 -12 49 -13 68 -2 6 5 12 4 12 -2 0 -11 19 -9
39 3 8 5 16 4 21 -4 10 -15 21 -15 31 2 7 10 9 10 9 0 0 -9 5 -10 19 -2 14 7
22 7 26 0 5 -8 11 -8 20 0 10 8 15 8 20 0 5 -8 11 -8 21 1 8 6 14 7 14 2 0 -5
11 -9 25 -9 14 0 25 4 25 8 0 5 9 4 20 -2 15 -8 20 -8 20 2 0 8 3 9 8 3 8 -12
62 -13 79 -2 6 4 15 3 18 -3 5 -8 11 -7 22 1 9 8 17 9 21 3 11 -14 32 -15 32
-1 0 7 3 8 8 2 4 -5 16 -10 27 -10 11 0 23 5 27 10 5 7 8 6 8 0 0 -12 49 -13
68 -2 6 5 12 4 12 -2 0 -11 19 -9 39 3 7 5 16 5 20 0 8 -12 51 -14 51 -2 0 5
9 4 20 -2 15 -8 20 -8 20 2 0 8 3 9 8 3 8 -12 32 -13 50 -2 7 5 12 4 12 -2 0
-13 22 -10 32 4 5 6 8 6 8 -1 0 -12 38 -13 58 -1 6 5 12 4 12 -2 0 -9 37 -7
48 3 2 3 13 1 23 -5 14 -7 19 -6 19 3 0 10 2 10 9 0 11 -17 21 -17 32 0 7 10
9 10 9 0 0 -9 5 -10 18 -3 13 7 23 6 30 -1 9 -9 12 -8 12 2 0 12 2 12 9 2 11
-17 21 -17 32 0 5 7 9 8 9 2 0 -12 38 -13 58 -1 6 5 12 4 12 -2 0 -9 37 -7 48
3 2 3 13 1 23 -5 14 -7 19 -6 19 3 0 10 2 10 9 0 4 -8 12 -14 16 -14 4 0 12 6
16 14 7 10 9 10 9 0 0 -9 5 -10 18 -3 13 7 22 7 29 0 8 -8 17 -8 31 0 15 8 23
8 27 1 5 -8 12 -7 22 1 9 8 17 9 21 3 11 -14 32 -15 32 -2 0 8 3 9 8 3 4 -5
16 -10 27 -10 11 0 23 5 27 10 5 7 8 6 8 0 0 -12 49 -13 68 -2 6 5 12 4 12 -2
0 -11 19 -9 39 3 7 5 16 5 20 0 8 -12 51 -14 51 -2 0 5 9 4 20 -2 15 -8 20 -8
20 2 0 8 3 9 8 3 8 -12 62 -13 79 -2 6 4 15 3 18 -3 5 -8 11 -7 22 1 9 8 17 9
21 3 11 -14 32 -15 32 -2 0 8 3 9 8 3 4 -5 16 -10 27 -10 11 0 23 5 27 10 5 7
8 6 8 0 0 -12 49 -13 68 -2 6 5 12 4 12 -2 0 -11 19 -9 39 3 7 5 16 5 20 0 8
-12 51 -14 51 -2 0 5 9 4 20 -2 15 -8 20 -8 20 2 0 8 3 9 8 3 8 -12 62 -13 79
-2 6 4 15 3 18 -3 5 -8 11 -7 22 1 9 8 17 9 21 3 11 -14 32 -15 32 -2 0 8 3 9
8 3 4 -5 16 -10 27 -10 11 0 23 5 27 10 5 7 8 6 8 0 0 -12 55 -13 66 -2 4 4
14 1 22 -6 17 -14 22 -13 33 5 8 11 10 11 18 0 12 -19 14 -19 33 -2 11 11 13
20 7 33 -6 9 -6 17 -1 17 5 0 6 23 2 50 -4 28 -4 50 0 50 4 0 4 23 0 50 -4 28
-3 50 2 50 5 0 4 9 -2 20 -6 11 -7 20 -2 20 5 0 6 23 2 50 -4 28 -4 50 0 50 4
0 4 23 0 50 -4 28 -3 50 2 50 5 0 4 9 -2 20 -8 14 -8 20 0 20 8 0 8 6 0 20 -8
14 -8 20 0 20 8 0 8 6 0 20 -6 11 -7 20 -2 20 5 0 6 23 2 50 -4 28 -4 50 0 50
4 0 4 23 0 50 -4 28 -3 50 2 50 5 0 4 9 -2 20 -6 11 -7 20 -3 20 4 0 6 22 5
50 l-4 50 -44 -3 c-24 -1 -46 2 -48 8 -3 6 -5 6 -5 0 -1 -12 -223 -11 -242 1
-7 4 -10 3 -6 -2 7 -13 -696 -12 -705 1 -5 7 -8 7 -8 0 0 -12 -222 -11 -241 1
-7 4 -10 3 -7 -2 7 -10 -1202 -11 -1219 -1 -6 4 -13 1 -16 -5 -3 -10 -8 -9
-22 2 -10 8 -16 10 -12 4 7 -11 -91 -12 -110 -1 -6 4 -13 1 -16 -5 -3 -10 -8
-9 -22 2 -10 8 -16 10 -12 4 6 -11 -144 -10 -163 1 -5 3 -7 -1 -4 -9 4 -11 0
-13 -15 -9 -12 3 -18 10 -14 17 5 8 3 8 -8 0 -8 -6 -46 -10 -86 -9 -49 1 -70
-2 -66 -9 4 -6 -1 -5 -10 3 -10 8 -20 11 -24 8 -3 -4 -13 -1 -21 6 -13 9 -14
9 -8 0 4 -7 3 -13 -1 -13 -5 0 -15 6 -22 13 -7 6 -12 8 -11 2 5 -22 -1 -29
-10 -15 -9 13 -10 13 -10 0 0 -13 -2 -13 -9 -1 -8 13 -12 13 -27 0 -11 -9 -15
-9 -10 -1 4 7 1 12 -9 12 -10 0 -13 -5 -9 -12 5 -9 2 -9 -9 1 -9 7 -17 10 -17
6 0 -4 -7 -2 -15 5 -13 11 -14 10 -9 -4z"/>
<path d="M1270 2975 c0 -11 -11 -15 -40 -15 -27 0 -43 -5 -46 -15 -4 -8 -17
-15 -30 -15 -15 0 -24 -6 -24 -15 0 -9 -9 -15 -25 -15 -14 0 -28 -7 -31 -15
-4 -8 -11 -15 -16 -15 -13 0 -68 -56 -68 -69 0 -6 -7 -11 -15 -11 -8 0 -15 -7
-15 -15 0 -8 -7 -15 -15 -15 -9 0 -15 -9 -15 -24 0 -13 -7 -26 -15 -30 -8 -3
-15 -17 -15 -31 0 -16 -6 -25 -15 -25 -10 0 -15 -10 -15 -30 0 -16 -4 -30 -10
-30 -5 0 -10 -17 -10 -39 0 -22 -6 -44 -15 -51 -12 -10 -15 -49 -15 -230 0
-184 2 -219 15 -224 10 -3 15 -19 15 -46 0 -22 5 -40 10 -40 6 0 10 -13 10
-29 0 -16 7 -36 15 -45 8 -8 15 -21 15 -29 0 -8 7 -20 15 -27 8 -7 15 -19 15
-26 0 -8 7 -14 15 -14 8 0 15 -7 15 -15 0 -8 5 -15 11 -15 14 0 39 -25 39 -39
0 -6 7 -11 15 -11 8 0 15 -7 15 -15 0 -8 7 -15 15 -15 8 0 15 -7 15 -15 0 -10
10 -15 30 -15 20 0 30 -5 30 -15 0 -9 9 -15 25 -15 14 0 25 -4 25 -10 0 -5 14
-10 30 -10 18 0 33 -6 36 -15 5 -13 39 -15 215 -15 179 0 209 2 209 15 0 11
12 15 45 15 25 0 45 5 45 10 0 6 16 10 35 10 22 0 38 6 41 15 4 9 19 15 35 15
19 0 29 5 29 15 0 8 7 15 15 15 13 0 15 40 15 300 l0 300 -260 0 -260 0 0 -75
0 -75 165 0 165 0 0 -176 c0 -198 -2 -204 -69 -204 -30 0 -41 -4 -41 -15 0
-13 -23 -15 -145 -15 -122 0 -145 2 -145 15 0 11 -12 15 -45 15 -33 0 -45 4
-45 15 0 8 -6 15 -14 15 -8 0 -16 7 -20 15 -3 8 -15 15 -26 15 -11 0 -20 7
-20 15 0 8 -7 15 -15 15 -8 0 -15 9 -15 20 0 11 -7 23 -15 26 -8 4 -15 12 -15
19 0 7 -3 15 -7 17 -13 5 -43 68 -43 89 0 10 -7 19 -15 19 -12 0 -15 16 -15
80 0 62 -3 82 -15 86 -12 5 -15 24 -15 84 0 60 3 79 15 84 11 4 15 23 15 81 0
60 3 75 15 75 10 0 15 10 15 30 0 17 3 30 8 30 4 0 16 20 27 45 10 24 25 47
32 49 7 3 13 15 13 26 0 11 7 20 15 20 8 0 15 7 15 15 0 9 9 15 25 15 14 0 25
5 25 10 0 6 7 10 15 10 8 0 15 7 15 15 0 11 11 15 40 15 27 0 43 5 46 15 5 12
29 15 125 15 99 0 119 -3 119 -15 0 -11 11 -15 38 -15 20 0 46 -7 56 -15 11
-8 30 -15 43 -15 13 0 23 -4 23 -10 0 -5 9 -10 20 -10 11 0 20 -4 20 -10 0 -5
11 -12 25 -16 14 -3 25 -12 25 -20 0 -8 7 -14 15 -14 8 0 15 -7 15 -15 0 -10
11 -15 35 -15 l35 0 0 105 c0 87 -3 105 -15 105 -8 0 -15 7 -15 15 0 10 -10
15 -30 15 -20 0 -30 5 -30 15 0 10 -10 15 -29 15 -16 0 -31 6 -35 15 -4 11
-20 15 -56 15 -38 0 -50 4 -50 15 0 13 -29 15 -200 15 -171 0 -200 -2 -200
-15z"/>
<path d="M2450 2915 c0 -33 -4 -45 -15 -45 -11 0 -15 -11 -15 -40 0 -29 -4
-40 -15 -40 -11 0 -15 -11 -15 -39 0 -25 -5 -41 -15 -45 -10 -3 -15 -19 -15
-45 0 -25 -5 -41 -15 -45 -9 -3 -15 -19 -15 -41 0 -19 -4 -35 -9 -35 -6 0 -13
-20 -17 -45 -3 -25 -10 -45 -15 -45 -5 0 -9 -18 -9 -40 0 -29 -4 -40 -15 -40
-11 0 -15 -12 -15 -45 0 -33 -4 -45 -15 -45 -11 0 -15 -11 -15 -40 0 -29 -4
-40 -15 -40 -11 0 -15 -11 -15 -36 0 -19 -7 -42 -15 -50 -8 -9 -15 -31 -15
-50 0 -19 -4 -34 -10 -34 -5 0 -10 -18 -10 -40 0 -29 -4 -40 -15 -40 -11 0
-15 -12 -15 -45 0 -33 -4 -45 -15 -45 -11 0 -15 -11 -15 -40 0 -29 -4 -40 -15
-40 -11 0 -15 -11 -15 -40 0 -27 -5 -43 -15 -46 -10 -4 -15 -20 -15 -44 0 -21
-6 -41 -12 -43 -7 -3 35 -6 95 -6 102 -1 107 0 107 20 0 11 7 27 15 35 8 9 15
31 15 50 0 19 5 34 10 34 6 0 10 18 10 39 0 25 5 41 15 45 10 3 15 19 15 46 0
29 4 40 15 40 9 0 15 9 15 25 l0 25 260 0 260 0 0 -25 c0 -14 7 -28 15 -31 10
-4 15 -20 15 -45 0 -21 5 -39 10 -39 6 0 10 -16 10 -35 0 -22 6 -38 15 -41 10
-4 15 -20 15 -50 0 -32 4 -44 15 -44 9 0 15 -9 15 -25 l0 -25 105 0 c88 0 105
3 105 15 0 9 -7 18 -15 21 -10 4 -15 20 -15 45 0 21 -4 39 -10 39 -5 0 -10 13
-10 28 0 16 -7 37 -15 48 -8 10 -15 34 -15 52 0 20 -6 35 -15 38 -10 4 -15 20
-15 45 0 28 -4 39 -15 39 -11 0 -15 11 -15 40 0 27 -5 43 -15 46 -10 4 -15 20
-15 45 0 21 -4 39 -10 39 -5 0 -10 13 -10 28 0 16 -7 37 -15 48 -8 10 -15 31
-15 46 0 15 -7 33 -15 42 -8 8 -15 29 -15 46 0 18 -6 33 -15 36 -10 4 -15 20
-15 45 0 26 -5 42 -15 45 -10 4 -15 20 -15 45 0 21 -4 39 -10 39 -5 0 -10 13
-10 29 0 16 -7 36 -15 45 -8 8 -15 28 -15 44 0 16 -7 35 -15 42 -8 7 -15 25
-15 41 0 15 -7 34 -15 43 -8 8 -15 25 -15 38 0 13 -7 33 -15 44 -8 10 -15 31
-15 47 l0 27 -130 0 -130 0 0 -45z m160 -265 c0 -29 4 -40 15 -40 11 0 15 -12
15 -45 0 -33 4 -45 15 -45 11 0 15 -12 15 -44 0 -26 6 -48 15 -56 9 -7 15 -29
15 -51 0 -28 4 -39 15 -39 11 0 15 -11 15 -38 0 -21 4 -42 9 -48 5 -5 12 -35
16 -66 l7 -58 -191 0 c-185 0 -191 1 -191 20 0 11 4 28 9 38 6 9 13 34 16 55
3 20 10 37 15 37 6 0 10 18 10 40 0 29 4 40 15 40 11 0 15 12 15 45 0 33 4 45
15 45 11 0 15 11 15 39 0 25 5 41 15 45 10 3 15 19 15 46 0 22 4 40 10 40 5 0
13 18 16 40 6 36 10 40 35 40 27 0 29 -3 29 -40z"/>
<path d="M3267 2953 c-4 -3 -7 -309 -7 -680 l0 -673 105 0 105 0 0 265 0 265
95 0 c54 0 95 -4 95 -10 0 -5 22 -31 48 -58 27 -28 52 -56 56 -63 27 -54 85
-119 105 -119 6 0 11 -7 11 -15 0 -8 7 -15 15 -15 9 0 15 -9 15 -23 0 -25 49
-87 68 -87 7 0 12 -7 12 -15 0 -8 7 -15 15 -15 9 0 15 -9 15 -25 0 -14 4 -25
9 -25 6 0 18 -14 28 -30 l17 -30 218 0 218 0 0 24 c0 13 7 26 15 30 10 3 15
19 15 45 0 25 5 41 15 45 9 3 15 19 15 41 0 19 5 35 10 35 6 0 10 20 10 45 0
33 4 45 15 45 9 0 15 9 15 25 l0 25 260 0 260 0 0 -25 c0 -14 7 -28 15 -31 10
-4 15 -20 15 -45 0 -28 4 -39 15 -39 11 0 15 -11 15 -40 0 -22 5 -40 10 -40 6
0 10 -15 10 -34 0 -19 7 -41 15 -50 8 -8 15 -24 15 -35 0 -20 6 -21 100 -21
82 0 100 -3 100 -15 0 -13 29 -15 205 -15 176 0 205 2 205 15 0 11 11 15 40
15 22 0 40 5 40 10 0 6 7 10 15 10 8 0 15 7 15 15 0 8 7 15 15 15 8 0 15 7 15
15 0 8 7 15 15 15 8 0 15 7 15 15 0 8 5 15 10 15 6 0 10 11 10 25 0 16 6 25
15 25 11 0 15 12 15 45 0 33 4 45 15 45 13 0 15 68 15 555 l0 555 -245 0 -245
0 0 -80 0 -80 140 0 140 0 0 -484 c0 -421 -2 -485 -15 -490 -8 -3 -15 -15 -15
-26 0 -11 -7 -20 -15 -20 -8 0 -15 -7 -15 -15 0 -9 -9 -15 -25 -15 -16 0 -25
-6 -25 -15 0 -12 -20 -15 -120 -15 -100 0 -120 3 -120 15 0 12 -14 15 -70 15
-67 0 -70 1 -70 24 0 13 -7 26 -15 30 -9 3 -15 19 -15 41 0 22 -6 38 -15 41
-10 4 -15 20 -15 45 0 28 -4 39 -15 39 -11 0 -15 11 -15 39 0 22 -4 43 -10 46
-5 3 -10 19 -10 35 0 16 -7 35 -15 44 -8 8 -15 28 -15 44 0 16 -7 35 -15 42
-8 7 -15 28 -15 47 0 21 -6 36 -15 39 -9 4 -15 19 -15 40 0 22 -6 37 -15 40
-10 4 -15 20 -15 44 0 22 -4 41 -9 44 -4 3 -11 24 -15 46 -3 22 -11 40 -16 40
-6 0 -10 13 -10 29 0 16 -7 36 -15 45 -8 8 -15 28 -15 45 0 16 -7 36 -15 45
-8 8 -15 26 -15 40 0 13 -7 31 -15 40 -8 8 -15 27 -15 43 0 16 -4 33 -9 38 -5
6 -11 24 -13 40 l-3 30 -132 3 -133 3 0 -46 c0 -33 -4 -45 -15 -45 -11 0 -15
-11 -15 -40 0 -29 -4 -40 -15 -40 -11 0 -15 -11 -15 -40 0 -27 -5 -43 -15 -46
-10 -4 -15 -20 -15 -45 0 -21 -4 -39 -9 -39 -5 0 -12 -18 -16 -40 -4 -22 -11
-40 -16 -40 -5 0 -9 -20 -9 -45 0 -33 -4 -45 -15 -45 -11 0 -15 -11 -15 -40 0
-29 -4 -40 -15 -40 -11 0 -15 -12 -15 -45 0 -33 -4 -45 -15 -45 -11 0 -15 -11
-15 -36 0 -19 -7 -42 -15 -50 -8 -9 -15 -29 -15 -45 0 -16 -4 -29 -10 -29 -5
0 -10 -20 -10 -45 0 -33 -4 -45 -15 -45 -11 0 -15 -11 -15 -40 0 -29 -4 -40
-15 -40 -11 0 -15 -12 -15 -45 0 -33 -4 -45 -15 -45 -11 0 -15 -11 -15 -39 0
-25 -5 -41 -15 -45 -9 -3 -15 -19 -15 -41 0 -39 -18 -65 -45 -65 -19 0 -45 23
-45 39 0 6 -7 11 -15 11 -8 0 -15 7 -15 15 0 8 -7 15 -15 15 -8 0 -15 7 -15
15 0 8 -7 15 -15 15 -8 0 -15 6 -15 14 0 8 -4 16 -8 18 -4 2 -18 20 -31 41
-12 20 -27 37 -32 37 -5 0 -9 7 -9 15 0 8 -7 15 -15 15 -8 0 -15 7 -15 15 0 8
-7 15 -15 15 -8 0 -15 6 -15 14 0 8 -4 16 -8 18 -4 2 -18 20 -31 41 -12 20
-27 37 -32 37 -5 0 -9 7 -9 15 0 8 -7 15 -15 15 -8 0 -15 7 -15 15 0 8 -7 15
-15 15 -10 0 -15 11 -15 35 0 24 5 35 15 35 8 0 15 5 15 10 0 6 8 10 18 10 20
1 62 33 62 49 0 6 7 11 15 11 8 0 15 7 15 15 0 8 7 15 15 15 8 0 15 7 15 15 0
8 4 15 10 15 5 0 12 11 16 24 3 14 12 27 20 30 9 3 14 20 14 45 0 22 5 41 12
43 21 7 24 170 4 209 -9 18 -16 43 -16 56 0 14 -6 23 -15 23 -9 0 -15 9 -15
25 0 14 -7 28 -15 31 -8 4 -15 12 -15 20 0 8 -7 14 -15 14 -8 0 -15 5 -15 10
0 6 -7 10 -15 10 -8 0 -15 7 -15 15 0 9 -9 15 -25 15 -16 0 -25 6 -25 15 0 10
-10 15 -30 15 -20 0 -30 5 -30 15 0 13 -41 15 -308 15 -170 0 -312 -3 -315 -7z
m517 -168 c11 -8 30 -15 43 -15 13 0 23 -4 23 -10 0 -5 7 -10 15 -10 8 0 15
-7 15 -15 0 -8 7 -15 15 -15 9 0 15 -9 15 -25 0 -14 5 -25 10 -25 6 0 10 -43
10 -110 0 -67 -4 -110 -10 -110 -5 0 -10 -11 -10 -25 0 -16 -6 -25 -15 -25 -8
0 -15 -6 -15 -13 0 -14 -35 -47 -50 -47 -6 0 -10 -7 -10 -15 0 -9 -9 -15 -24
-15 -13 0 -26 -7 -30 -15 -4 -12 -31 -15 -151 -15 l-145 0 0 260 0 260 148 0
c113 -1 151 -4 166 -15z m1136 -135 c0 -22 5 -40 10 -40 6 0 10 -18 10 -40 0
-27 5 -43 15 -46 10 -4 15 -19 15 -43 0 -21 7 -46 15 -57 8 -10 15 -34 15 -52
0 -20 6 -35 15 -38 10 -4 15 -20 15 -45 0 -26 5 -42 15 -45 11 -5 15 -22 15
-65 l0 -59 -190 0 c-186 0 -190 0 -190 21 0 11 7 27 15 35 8 9 15 33 15 55 0
21 4 39 10 39 5 0 13 18 16 40 4 22 10 40 15 40 5 0 9 20 9 45 0 33 4 45 15
45 11 0 15 11 15 39 0 25 5 41 15 45 10 3 15 19 15 45 0 25 5 41 15 45 9 3 15
19 15 41 0 33 2 35 35 35 34 0 35 -1 35 -40z"/>
<path d="M6350 2280 l0 -680 440 0 440 0 0 75 0 75 -335 0 -335 0 0 260 0 260
310 0 311 0 -3 78 -3 77 -307 3 -308 2 0 185 0 185 335 0 335 0 0 80 0 80
-440 0 -440 0 0 -680z"/>
</g>
</svg>
